<?xml version="1.0" encoding="UTF-8"?>
<!-- Generated by Pixelmator Pro 3.7 -->
<svg width="3300" height="2200" viewBox="0 0 3300 2200" xmlns="http://www.w3.org/2000/svg">
    <g id="Notes">
        <path id="artboard" fill="#ffffff" stroke="none" d="M 0 0 L 3300 0 L 3300 2200 L 0 2200 Z"/>
        <path id="Path" fill="none" stroke="#000000" stroke-width="0.5" d="M 263 292 L 3036 292"/>
        <text id="WeightScale-Variations" xml:space="preserve" x="262" y="324" font-family="Helvetica" font-size="13" font-weight="700" fill="#000000">Weight/Scale Variations</text>
        <text id="Ultralight" xml:space="preserve" x="532.352295" y="324" font-family="Helvetica" font-size="13" fill="#000000">Ultralight</text>
        <text id="Thin" xml:space="preserve" x="841.355469" y="324" font-family="Helvetica" font-size="13" fill="#000000">Thin</text>
        <text id="Light" xml:space="preserve" x="1137.905029" y="324" font-family="Helvetica" font-size="13" fill="#000000">Light</text>
        <text id="Regular" xml:space="preserve" x="1425.237305" y="324" font-family="Helvetica" font-size="13" fill="#000000">Regular</text>
        <text id="Medium" xml:space="preserve" x="1721.881836" y="324" font-family="Helvetica" font-size="13" fill="#000000">Medium</text>
        <text id="Semibold" xml:space="preserve" x="2014.901855" y="324" font-family="Helvetica" font-size="13" fill="#000000">Semibold</text>
        <text id="Bold" xml:space="preserve" x="2324.990479" y="324" font-family="Helvetica" font-size="13" fill="#000000">Bold</text>
        <text id="Heavy" xml:space="preserve" x="2616.575928" y="324" font-family="Helvetica" font-size="13" fill="#000000">Heavy</text>
        <text id="Black" xml:space="preserve" x="2915.105469" y="324" font-family="Helvetica" font-size="13" fill="#000000">Black</text>
        <path id="path1" fill="none" stroke="#000000" stroke-width="0.5" d="M 263 1903 L 3036 1903"/>
        <g id="Group">
            <path id="path2" fill="#000000" stroke="none" d="M 272.248047 1933.830078 C 276.603516 1933.830078 280.138672 1930.304688 280.138672 1925.949219 C 280.138672 1921.59375 276.603516 1918.068359 272.248047 1918.068359 C 267.902344 1918.068359 264.367188 1921.59375 264.367188 1925.949219 C 264.367188 1930.304688 267.902344 1933.830078 272.248047 1933.830078 Z M 272.248047 1932.345703 C 268.712891 1932.345703 265.861328 1929.484375 265.861328 1925.949219 C 265.861328 1922.414063 268.712891 1919.552734 272.248047 1919.552734 C 275.783203 1919.552734 278.644531 1922.414063 278.644531 1925.949219 C 278.644531 1929.484375 275.783203 1932.345703 272.248047 1932.345703 Z M 268.654266 1925.949219 C 268.654266 1926.378906 268.957001 1926.671875 269.406219 1926.671875 L 271.505829 1926.671875 L 271.505829 1928.791016 C 271.505829 1929.230469 271.798798 1929.533203 272.228485 1929.533203 C 272.677704 1929.533203 272.970673 1929.230469 272.970673 1928.791016 L 272.970673 1926.671875 L 275.089813 1926.671875 C 275.529266 1926.671875 275.832001 1926.378906 275.832001 1925.949219 C 275.832001 1925.509766 275.529266 1925.207031 275.089813 1925.207031 L 272.970673 1925.207031 L 272.970673 1923.097656 C 272.970673 1922.648438 272.677704 1922.345703 272.228485 1922.345703 C 271.798798 1922.345703 271.505829 1922.648438 271.505829 1923.097656 L 271.505829 1925.207031 L 269.406219 1925.207031 C 268.957031 1925.207031 268.654266 1925.509766 268.654266 1925.949219 Z"/>
        </g>
        <g id="g1">
            <path id="path3" fill="#000000" stroke="none" d="M 293.214966 1935.910156 C 298.713013 1935.910156 303.175934 1931.447266 303.175934 1925.949219 C 303.175934 1920.451172 298.713013 1915.988281 293.214966 1915.988281 C 287.716949 1915.988281 283.254028 1920.451172 283.254028 1925.949219 C 283.254028 1931.447266 287.716949 1935.910156 293.214966 1935.910156 Z M 293.214966 1934.25 C 288.625153 1934.25 284.914215 1930.539063 284.914215 1925.949219 C 284.914215 1921.359375 288.625153 1917.648438 293.214966 1917.648438 C 297.80481 1917.648438 301.515747 1921.359375 301.515747 1925.949219 C 301.515747 1930.539063 297.80481 1934.25 293.214966 1934.25 Z M 288.683746 1925.949219 C 288.683746 1926.427734 289.015778 1926.75 289.513824 1926.75 L 292.384918 1926.75 L 292.384918 1929.630859 C 292.384918 1930.119141 292.716949 1930.460938 293.195465 1930.460938 C 293.683746 1930.460938 294.025543 1930.128906 294.025543 1929.630859 L 294.025543 1926.75 L 296.906403 1926.75 C 297.394684 1926.75 297.736481 1926.427734 297.736481 1925.949219 C 297.736481 1925.460938 297.394684 1925.119141 296.906403 1925.119141 L 294.025543 1925.119141 L 294.025543 1922.248047 C 294.025543 1921.75 293.683746 1921.408203 293.195465 1921.408203 C 292.716949 1921.408203 292.384918 1921.75 292.384918 1922.248047 L 292.384918 1925.119141 L 289.513824 1925.119141 C 289.015778 1925.119141 288.683746 1925.460938 288.683746 1925.949219 Z"/>
        </g>
        <g id="g2">
            <path id="path4" fill="#000000" stroke="none" d="M 319.894714 1938.664063 C 326.916168 1938.664063 332.619293 1932.970703 332.619293 1925.949219 C 332.619293 1918.927734 326.916168 1913.224609 319.894714 1913.224609 C 312.87323 1913.224609 307.179871 1918.927734 307.179871 1925.949219 C 307.179871 1932.970703 312.87323 1938.664063 319.894714 1938.664063 Z M 319.894714 1936.847656 C 313.869293 1936.847656 308.996246 1931.974609 308.996246 1925.949219 C 308.996246 1919.923828 313.869293 1915.050781 319.894714 1915.050781 C 325.920105 1915.050781 330.793152 1919.923828 330.793152 1925.949219 C 330.793152 1931.974609 325.920105 1936.847656 319.894714 1936.847656 Z M 314.12323 1925.949219 C 314.12323 1926.466797 314.494324 1926.828125 315.041199 1926.828125 L 318.986511 1926.828125 L 318.986511 1930.783203 C 318.986511 1931.320313 319.357605 1931.701172 319.875183 1931.701172 C 320.412292 1931.701172 320.783386 1931.330078 320.783386 1930.783203 L 320.783386 1926.828125 L 324.738464 1926.828125 C 325.275574 1926.828125 325.656433 1926.466797 325.656433 1925.949219 C 325.656433 1925.402344 325.285339 1925.03125 324.738464 1925.03125 L 320.783386 1925.03125 L 320.783386 1921.085938 C 320.783386 1920.539063 320.412292 1920.158203 319.875183 1920.158203 C 319.357605 1920.158203 318.986511 1920.539063 318.986511 1921.085938 L 318.986511 1925.03125 L 315.041199 1925.03125 C 314.494324 1925.03125 314.12323 1925.402344 314.12323 1925.949219 Z"/>
        </g>
        <text id="Design-Variations" xml:space="preserve" x="262" y="1955" font-family="Helvetica" font-size="13" font-weight="700" fill="#000000">Design Variations</text>
        <text id="Symbols-are-supported-in" xml:space="preserve" x="262" y="1973" font-family="Helvetica" font-size="13" fill="#000000">Symbols are supported in up to nine weights and three scales.</text>
        <text id="For-optimal-layout-with" xml:space="preserve" x="262" y="1991" font-family="Helvetica" font-size="13" fill="#000000">For optimal layout with text and other symbols, vertically align</text>
        <text id="symbols-with-the-adjacent" xml:space="preserve" x="262" y="2009" font-family="Helvetica" font-size="13" fill="#000000">symbols with the adjacent text.</text>
        <path id="path5" fill="none" stroke="#00aeef" stroke-width="0.5" d="M 776 1919 L 776 1933"/>
        <g id="g3">
            <path id="path6" fill="#000000" stroke="none" d="M 779.310547 1933.15625 C 779.828125 1933.15625 780.082031 1932.960938 780.267578 1932.414063 L 781.527344 1928.966797 L 787.289063 1928.966797 L 788.548828 1932.414063 C 788.734375 1932.960938 788.988281 1933.15625 789.496094 1933.15625 C 790.013672 1933.15625 790.345703 1932.84375 790.345703 1932.355469 C 790.345703 1932.189453 790.316406 1932.033203 790.238281 1931.828125 L 785.658203 1919.630859 C 785.433594 1919.035156 785.033203 1918.732422 784.408203 1918.732422 C 783.802734 1918.732422 783.392578 1919.025391 783.177734 1919.621094 L 778.597656 1931.837891 C 778.519531 1932.042969 778.490234 1932.199219 778.490234 1932.365234 C 778.490234 1932.853516 778.802734 1933.15625 779.310547 1933.15625 Z M 782.005859 1927.482422 L 784.378906 1920.910156 L 784.427734 1920.910156 L 786.800781 1927.482422 Z"/>
        </g>
        <path id="path7" fill="none" stroke="#00aeef" stroke-width="0.5" d="M 792.835999 1919 L 792.835999 1933"/>
        <text id="Margins" xml:space="preserve" x="775" y="1955" font-family="Helvetica" font-size="13" font-weight="700" fill="#000000">Margins</text>
        <text id="Leading-and-trailing-margins" xml:space="preserve" x="775" y="1973" font-family="Helvetica" font-size="13" fill="#000000">Leading and trailing margins on the left and right side of each symbol</text>
        <text id="can-be-adjusted-by" xml:space="preserve" x="775" y="1991" font-family="Helvetica" font-size="13" fill="#000000">can be adjusted by modifying the x-location of the margin guidelines.</text>
        <text id="Modifications-are-automatically-applied" xml:space="preserve" x="775" y="2009" font-family="Helvetica" font-size="13" fill="#000000">Modifications are automatically applied proportionally to all</text>
        <text id="scales-and-weights" xml:space="preserve" x="775" y="2027" font-family="Helvetica" font-size="13" fill="#000000">scales and weights.</text>
        <g id="g4">
            <path id="path8" fill="#000000" stroke="none" d="M 1291.841797 1934.865234 L 1293.541016 1936.574219 C 1294.400391 1937.443359 1295.386719 1937.384766 1296.314453 1936.359375 L 1307.007813 1924.572266 L 1306.041016 1923.595703 L 1295.425781 1935.275391 C 1295.074219 1935.675781 1294.742188 1935.773438 1294.273438 1935.304688 L 1293.101563 1934.142578 C 1292.632813 1933.683594 1292.740234 1933.341797 1293.140625 1932.980469 L 1304.615234 1922.179688 L 1303.638672 1921.212891 L 1292.046875 1932.101563 C 1291.060547 1933.019531 1290.982422 1933.996094 1291.841797 1934.865234 Z M 1298.257813 1916.671875 C 1297.837891 1917.082031 1297.808594 1917.658203 1298.042969 1918.048828 C 1298.277344 1918.410156 1298.736328 1918.644531 1299.380859 1918.478516 C 1300.845703 1918.136719 1302.369141 1918.078125 1303.794922 1919.015625 L 1303.208984 1920.470703 C 1302.867188 1921.300781 1303.042969 1921.886719 1303.580078 1922.433594 L 1305.875 1924.748047 C 1306.363281 1925.236328 1306.773438 1925.255859 1307.339844 1925.158203 L 1308.404297 1924.962891 L 1309.068359 1925.636719 L 1309.029297 1926.193359 C 1308.990234 1926.691406 1309.117188 1927.072266 1309.605469 1927.550781 L 1310.367188 1928.292969 C 1310.845703 1928.771484 1311.460938 1928.800781 1311.929688 1928.332031 L 1314.839844 1925.412109 C 1315.308594 1924.943359 1315.289063 1924.347656 1314.810547 1923.869141 L 1314.039063 1923.107422 C 1313.560547 1922.628906 1313.189453 1922.472656 1312.710938 1922.511719 L 1312.134766 1922.560547 L 1311.490234 1921.925781 L 1311.734375 1920.802734 C 1311.861328 1920.236328 1311.705078 1919.796875 1311.119141 1919.210938 L 1308.921875 1917.023438 C 1305.582031 1913.703125 1301.148438 1913.78125 1298.257813 1916.671875 Z M 1299.751953 1917.042969 C 1302.183594 1915.265625 1305.474609 1915.568359 1307.701172 1917.794922 L 1310.132813 1920.207031 C 1310.367188 1920.441406 1310.40625 1920.626953 1310.337891 1920.96875 L 1310.015625 1922.453125 L 1311.519531 1923.9375 L 1312.505859 1923.878906 C 1312.759766 1923.869141 1312.837891 1923.888672 1313.033203 1924.083984 L 1313.609375 1924.660156 L 1311.167969 1927.101563 L 1310.591797 1926.525391 C 1310.396484 1926.330078 1310.367188 1926.251953 1310.376953 1925.988281 L 1310.445313 1925.011719 L 1308.951172 1923.527344 L 1307.427734 1923.78125 C 1307.105469 1923.849609 1306.958984 1923.820313 1306.714844 1923.585938 L 1304.712891 1921.583984 C 1304.458984 1921.349609 1304.429688 1921.183594 1304.585938 1920.8125 L 1305.464844 1918.722656 C 1303.902344 1917.267578 1301.871094 1916.642578 1299.839844 1917.238281 C 1299.683594 1917.277344 1299.625 1917.150391 1299.751953 1917.042969 Z"/>
        </g>
        <text id="Exporting" xml:space="preserve" x="1288" y="1955" font-family="Helvetica" font-size="13" font-weight="700" fill="#000000">Exporting</text>
        <text id="Symbols-should-be-outlined" xml:space="preserve" x="1288" y="1973" font-family="Helvetica" font-size="13" fill="#000000">Symbols should be outlined when exporting to ensure the</text>
        <text id="design-is-preserved-when" xml:space="preserve" x="1288" y="1991" font-family="Helvetica" font-size="13" fill="#000000">design is preserved when submitting to Xcode.</text>
        <text id="template-version" xml:space="preserve" x="2949.414063" y="1935" font-family="Helvetica" font-size="13" fill="#000000">Template v.6.0</text>
        <text id="Requires-Xcode-16-or" xml:space="preserve" x="2862.45752" y="1953" font-family="Helvetica" font-size="13" fill="#000000">Requires Xcode 16 or greater</text>
        <text id="Generated-from-dicebag" xml:space="preserve" x="2889.193848" y="1971" font-family="Helvetica" font-size="13" fill="#000000">Generated from dice.bag</text>
        <text id="Typeset-at-1000-points" xml:space="preserve" x="2898.569336" y="1989" font-family="Helvetica" font-size="13" fill="#000000">Typeset at 100.0 points</text>
        <text id="Small" xml:space="preserve" x="262" y="728" font-family="Helvetica" font-size="13" fill="#000000">Small</text>
        <text id="text1" xml:space="preserve" x="262" y="1158" font-family="Helvetica" font-size="13" fill="#000000">Medium</text>
        <text id="Large" xml:space="preserve" x="262" y="1588" font-family="Helvetica" font-size="13" fill="#000000">Large</text>
    </g>
    <g id="Guides">
        <g id="H-reference">
            <path id="path9" fill="#27aae1" stroke="none" d="M 339.993652 696 L 342.637756 696 L 368.328094 628.867676 L 369.030304 628.867676 L 369.030304 625.541016 L 367.122589 625.541016 Z M 350.688507 671.520142 L 385.981506 671.520142 L 385.231506 669.271484 L 351.438507 669.271484 Z M 394.119598 696 L 396.763702 696 L 369.638214 625.541016 L 368.432587 625.541016 L 368.432587 628.867676 Z"/>
        </g>
        <path id="Baseline-S" fill="none" stroke="#27aae1" stroke-width="0.5" d="M 263 696 L 3036 696"/>
        <path id="Capline-S" fill="none" stroke="#27aae1" stroke-width="0.5" d="M 263 625.541016 L 3036 625.541016"/>
        <g id="g5">
            <path id="path10" fill="#27aae1" stroke="none" d="M 339.993652 1126 L 342.637756 1126 L 368.328094 1058.867676 L 369.030304 1058.867676 L 369.030304 1055.541016 L 367.122589 1055.541016 Z M 350.688507 1101.520142 L 385.981506 1101.520142 L 385.231506 1099.271484 L 351.438507 1099.271484 Z M 394.119598 1126 L 396.763702 1126 L 369.638214 1055.541016 L 368.432587 1055.541016 L 368.432587 1058.867676 Z"/>
        </g>
        <path id="Baseline-M" fill="none" stroke="#27aae1" stroke-width="0.5" d="M 263 1126 L 3036 1126"/>
        <path id="Capline-M" fill="none" stroke="#27aae1" stroke-width="0.5" d="M 263 1055.540039 L 3036 1055.540039"/>
        <g id="g6">
            <path id="path11" fill="#27aae1" stroke="none" d="M 339.993652 1556 L 342.637756 1556 L 368.328094 1488.867676 L 369.030304 1488.867676 L 369.030304 1485.541016 L 367.122589 1485.541016 Z M 350.688507 1531.52002 L 385.981506 1531.52002 L 385.231506 1529.271484 L 351.438507 1529.271484 Z M 394.119598 1556 L 396.763702 1556 L 369.638214 1485.541016 L 368.432587 1485.541016 L 368.432587 1488.867676 Z"/>
        </g>
        <path id="Baseline-L" fill="none" stroke="#27aae1" stroke-width="0.5" d="M 263 1556 L 3036 1556"/>
        <path id="Capline-L" fill="none" stroke="#27aae1" stroke-width="0.5" d="M 263 1485.540039 L 3036 1485.540039"/>
        <path id="right-margin-Black-S" fill="none" stroke="#00aeef" stroke-width="0.5" d="M 2982.22998 600.784912 L 2982.22998 720.120972"/>
        <path id="left-margin-Black-S" fill="none" stroke="#00aeef" stroke-width="0.5" d="M 2884.570068 600.784912 L 2884.570068 720.120972"/>
        <path id="right-margin-Regular-S" fill="none" stroke="#00aeef" stroke-width="0.5" d="M 1496.109985 600.784912 L 1496.109985 720.120972"/>
        <path id="left-margin-Regular-S" fill="none" stroke="#00aeef" stroke-width="0.5" d="M 1403.579956 600.784912 L 1403.579956 720.120972"/>
        <path id="right-margin-Ultralight-S" fill="none" stroke="#00aeef" stroke-width="0.5" d="M 603.77301 600.784912 L 603.77301 720.120972"/>
        <path id="left-margin-Ultralight-S" fill="none" stroke="#00aeef" stroke-width="0.5" d="M 515.648987 600.784912 L 515.648987 720.120972"/>
    </g>
    <g id="Symbols">
        <g id="Black-S">
            <g id="Group-copy-6">
                <path id="Rounded-Rectangle" fill="#000000" fill-rule="evenodd" stroke="none" d="M 2941.166748 665.300049 C 2939.583496 665.300049 2938.300049 666.583496 2938.300049 668.166626 L 2938.300049 701.133301 C 2938.300049 702.716553 2939.583496 704 2941.166748 704 L 2974.133301 704 C 2975.716553 704 2977 702.716553 2977 701.133301 L 2977 668.166626 C 2977 666.583496 2975.716553 665.300049 2974.133301 665.300049 Z"/>
                <path id="path12" fill="#000000" fill-rule="evenodd" stroke="none" d="M 2893.866699 618 C 2892.283447 618 2891 619.283447 2891 620.866699 L 2891 653.833374 C 2891 655.416504 2892.283447 656.699951 2893.866699 656.699951 L 2974.133301 656.699951 C 2975.716553 656.699951 2977 655.416504 2977 653.833374 L 2977 620.866699 C 2977 619.283447 2975.716553 618 2974.133301 618 Z"/>
                <path id="path13" fill="#000000" fill-rule="evenodd" stroke="none" d="M 2893.866699 665.300049 C 2892.283447 665.300049 2891 666.583496 2891 668.166626 L 2891 701.133301 C 2891 702.716553 2892.283447 704 2893.866699 704 L 2926.833252 704 C 2928.416504 704 2929.699951 702.716553 2929.699951 701.133301 L 2929.699951 668.166626 C 2929.699951 666.583496 2928.416504 665.300049 2926.833252 665.300049 Z"/>
            </g>
        </g>
        <g id="Regular-S">
            <g id="Group-copy-5">
                <path id="path14" fill="#000000" fill-rule="evenodd" stroke="none" d="M 1456.25 664.550049 C 1454.758789 664.550049 1453.550049 665.758789 1453.550049 667.25 L 1453.550049 698.300049 C 1453.550049 699.791138 1454.758789 701 1456.25 701 L 1487.300049 701 C 1488.791138 701 1490 699.791138 1490 698.300049 L 1490 667.25 C 1490 665.758789 1488.791138 664.550049 1487.300049 664.550049 Z"/>
                <path id="path15" fill="#000000" fill-rule="evenodd" stroke="none" d="M 1411.699951 620 C 1410.208862 620 1409 621.208862 1409 622.699951 L 1409 653.75 C 1409 655.241211 1410.208862 656.449951 1411.699951 656.449951 L 1487.300049 656.449951 C 1488.791138 656.449951 1490 655.241211 1490 653.75 L 1490 622.699951 C 1490 621.208862 1488.791138 620 1487.300049 620 Z"/>
                <path id="path16" fill="#000000" fill-rule="evenodd" stroke="none" d="M 1411.699951 664.550049 C 1410.208862 664.550049 1409 665.758789 1409 667.25 L 1409 698.300049 C 1409 699.791138 1410.208862 701 1411.699951 701 L 1442.75 701 C 1444.241211 701 1445.449951 699.791138 1445.449951 698.300049 L 1445.449951 667.25 C 1445.449951 665.758789 1444.241211 664.550049 1442.75 664.550049 Z"/>
            </g>
        </g>
        <g id="Ultralight-S">
            <g id="Group-copy-4">
                <path id="path17" fill="#000000" fill-rule="evenodd" stroke="none" d="M 567 663.599976 C 565.6745 663.599976 564.599976 664.674561 564.599976 666 L 564.599976 693.599976 C 564.599976 694.925537 565.6745 696 567 696 L 594.599976 696 C 595.925476 696 597 694.925537 597 693.599976 L 597 666 C 597 664.674561 595.925476 663.599976 594.599976 663.599976 Z"/>
                <path id="path18" fill="#000000" fill-rule="evenodd" stroke="none" d="M 527.400024 624 C 526.074524 624 525 625.074463 525 626.400024 L 525 654 C 525 655.325439 526.074524 656.400024 527.400024 656.400024 L 594.599976 656.400024 C 595.925476 656.400024 597 655.325439 597 654 L 597 626.400024 C 597 625.074463 595.925476 624 594.599976 624 Z"/>
                <path id="path19" fill="#000000" fill-rule="evenodd" stroke="none" d="M 527.400024 663.599976 C 526.074524 663.599976 525 664.674561 525 666 L 525 693.599976 C 525 694.925537 526.074524 696 527.400024 696 L 555 696 C 556.3255 696 557.400024 694.925537 557.400024 693.599976 L 557.400024 666 C 557.400024 664.674561 556.3255 663.599976 555 663.599976 Z"/>
            </g>
        </g>
    </g>
</svg>
