<?xml version="1.0" encoding="UTF-8"?>
<!-- Generated by Pixelmator Pro 3.7 -->
<svg width="3300" height="2200" viewBox="0 0 3300 2200" xmlns="http://www.w3.org/2000/svg">
    <g id="Notes">
        <path id="artboard" fill="#ffffff" stroke="none" d="M 0 -4 L 3300 -4 L 3300 2196 L 0 2196 Z"/>
        <path id="Path" fill="none" stroke="#000000" stroke-width="0.5" d="M 263 288 L 3036 288"/>
        <text id="WeightScale-Variations" xml:space="preserve" x="262" y="320" font-family="Helvetica" font-size="13" font-weight="700" fill="#000000">Weight/Scale Variations</text>
        <text id="Ultralight" xml:space="preserve" x="532.352295" y="320" font-family="Helvetica" font-size="13" fill="#000000">Ultralight</text>
        <text id="Thin" xml:space="preserve" x="841.355469" y="320" font-family="Helvetica" font-size="13" fill="#000000">Thin</text>
        <text id="Light" xml:space="preserve" x="1137.905029" y="320" font-family="Helvetica" font-size="13" fill="#000000">Light</text>
        <text id="Regular" xml:space="preserve" x="1425.237305" y="320" font-family="Helvetica" font-size="13" fill="#000000">Regular</text>
        <text id="Medium" xml:space="preserve" x="1721.881836" y="320" font-family="Helvetica" font-size="13" fill="#000000">Medium</text>
        <text id="Semibold" xml:space="preserve" x="2014.901855" y="320" font-family="Helvetica" font-size="13" fill="#000000">Semibold</text>
        <text id="Bold" xml:space="preserve" x="2324.990479" y="320" font-family="Helvetica" font-size="13" fill="#000000">Bold</text>
        <text id="Heavy" xml:space="preserve" x="2616.575928" y="320" font-family="Helvetica" font-size="13" fill="#000000">Heavy</text>
        <text id="Black" xml:space="preserve" x="2915.105469" y="320" font-family="Helvetica" font-size="13" fill="#000000">Black</text>
        <path id="path1" fill="none" stroke="#000000" stroke-width="0.5" d="M 263 1899 L 3036 1899"/>
        <g id="Group">
            <path id="path2" fill="#000000" stroke="none" d="M 272.248047 1929.830078 C 276.603516 1929.830078 280.138672 1926.304688 280.138672 1921.949219 C 280.138672 1917.59375 276.603516 1914.068359 272.248047 1914.068359 C 267.902344 1914.068359 264.367188 1917.59375 264.367188 1921.949219 C 264.367188 1926.304688 267.902344 1929.830078 272.248047 1929.830078 Z M 272.248047 1928.345703 C 268.712891 1928.345703 265.861328 1925.484375 265.861328 1921.949219 C 265.861328 1918.414063 268.712891 1915.552734 272.248047 1915.552734 C 275.783203 1915.552734 278.644531 1918.414063 278.644531 1921.949219 C 278.644531 1925.484375 275.783203 1928.345703 272.248047 1928.345703 Z M 268.654266 1921.949219 C 268.654266 1922.378906 268.957001 1922.671875 269.406219 1922.671875 L 271.505829 1922.671875 L 271.505829 1924.791016 C 271.505829 1925.230469 271.798798 1925.533203 272.228485 1925.533203 C 272.677704 1925.533203 272.970673 1925.230469 272.970673 1924.791016 L 272.970673 1922.671875 L 275.089813 1922.671875 C 275.529266 1922.671875 275.832001 1922.378906 275.832001 1921.949219 C 275.832001 1921.509766 275.529266 1921.207031 275.089813 1921.207031 L 272.970673 1921.207031 L 272.970673 1919.097656 C 272.970673 1918.648438 272.677704 1918.345703 272.228485 1918.345703 C 271.798798 1918.345703 271.505829 1918.648438 271.505829 1919.097656 L 271.505829 1921.207031 L 269.406219 1921.207031 C 268.957031 1921.207031 268.654266 1921.509766 268.654266 1921.949219 Z"/>
        </g>
        <g id="g1">
            <path id="path3" fill="#000000" stroke="none" d="M 293.214966 1931.910156 C 298.713013 1931.910156 303.175934 1927.447266 303.175934 1921.949219 C 303.175934 1916.451172 298.713013 1911.988281 293.214966 1911.988281 C 287.716949 1911.988281 283.254028 1916.451172 283.254028 1921.949219 C 283.254028 1927.447266 287.716949 1931.910156 293.214966 1931.910156 Z M 293.214966 1930.25 C 288.625153 1930.25 284.914215 1926.539063 284.914215 1921.949219 C 284.914215 1917.359375 288.625153 1913.648438 293.214966 1913.648438 C 297.80481 1913.648438 301.515747 1917.359375 301.515747 1921.949219 C 301.515747 1926.539063 297.80481 1930.25 293.214966 1930.25 Z M 288.683746 1921.949219 C 288.683746 1922.427734 289.015778 1922.75 289.513824 1922.75 L 292.384918 1922.75 L 292.384918 1925.630859 C 292.384918 1926.119141 292.716949 1926.460938 293.195465 1926.460938 C 293.683746 1926.460938 294.025543 1926.128906 294.025543 1925.630859 L 294.025543 1922.75 L 296.906403 1922.75 C 297.394684 1922.75 297.736481 1922.427734 297.736481 1921.949219 C 297.736481 1921.460938 297.394684 1921.119141 296.906403 1921.119141 L 294.025543 1921.119141 L 294.025543 1918.248047 C 294.025543 1917.75 293.683746 1917.408203 293.195465 1917.408203 C 292.716949 1917.408203 292.384918 1917.75 292.384918 1918.248047 L 292.384918 1921.119141 L 289.513824 1921.119141 C 289.015778 1921.119141 288.683746 1921.460938 288.683746 1921.949219 Z"/>
        </g>
        <g id="g2">
            <path id="path4" fill="#000000" stroke="none" d="M 319.894714 1934.664063 C 326.916168 1934.664063 332.619293 1928.970703 332.619293 1921.949219 C 332.619293 1914.927734 326.916168 1909.224609 319.894714 1909.224609 C 312.87323 1909.224609 307.179871 1914.927734 307.179871 1921.949219 C 307.179871 1928.970703 312.87323 1934.664063 319.894714 1934.664063 Z M 319.894714 1932.847656 C 313.869293 1932.847656 308.996246 1927.974609 308.996246 1921.949219 C 308.996246 1915.923828 313.869293 1911.050781 319.894714 1911.050781 C 325.920105 1911.050781 330.793152 1915.923828 330.793152 1921.949219 C 330.793152 1927.974609 325.920105 1932.847656 319.894714 1932.847656 Z M 314.12323 1921.949219 C 314.12323 1922.466797 314.494324 1922.828125 315.041199 1922.828125 L 318.986511 1922.828125 L 318.986511 1926.783203 C 318.986511 1927.320313 319.357605 1927.701172 319.875183 1927.701172 C 320.412292 1927.701172 320.783386 1927.330078 320.783386 1926.783203 L 320.783386 1922.828125 L 324.738464 1922.828125 C 325.275574 1922.828125 325.656433 1922.466797 325.656433 1921.949219 C 325.656433 1921.402344 325.285339 1921.03125 324.738464 1921.03125 L 320.783386 1921.03125 L 320.783386 1917.085938 C 320.783386 1916.539063 320.412292 1916.158203 319.875183 1916.158203 C 319.357605 1916.158203 318.986511 1916.539063 318.986511 1917.085938 L 318.986511 1921.03125 L 315.041199 1921.03125 C 314.494324 1921.03125 314.12323 1921.402344 314.12323 1921.949219 Z"/>
        </g>
        <text id="Design-Variations" xml:space="preserve" x="262" y="1951" font-family="Helvetica" font-size="13" font-weight="700" fill="#000000">Design Variations</text>
        <text id="Symbols-are-supported-in" xml:space="preserve" x="262" y="1969" font-family="Helvetica" font-size="13" fill="#000000">Symbols are supported in up to nine weights and three scales.</text>
        <text id="For-optimal-layout-with" xml:space="preserve" x="262" y="1987" font-family="Helvetica" font-size="13" fill="#000000">For optimal layout with text and other symbols, vertically align</text>
        <text id="symbols-with-the-adjacent" xml:space="preserve" x="262" y="2005" font-family="Helvetica" font-size="13" fill="#000000">symbols with the adjacent text.</text>
        <path id="path5" fill="none" stroke="#00aeef" stroke-width="0.5" d="M 776 1915 L 776 1929"/>
        <g id="g3">
            <path id="path6" fill="#000000" stroke="none" d="M 779.310547 1929.15625 C 779.828125 1929.15625 780.082031 1928.960938 780.267578 1928.414063 L 781.527344 1924.966797 L 787.289063 1924.966797 L 788.548828 1928.414063 C 788.734375 1928.960938 788.988281 1929.15625 789.496094 1929.15625 C 790.013672 1929.15625 790.345703 1928.84375 790.345703 1928.355469 C 790.345703 1928.189453 790.316406 1928.033203 790.238281 1927.828125 L 785.658203 1915.630859 C 785.433594 1915.035156 785.033203 1914.732422 784.408203 1914.732422 C 783.802734 1914.732422 783.392578 1915.025391 783.177734 1915.621094 L 778.597656 1927.837891 C 778.519531 1928.042969 778.490234 1928.199219 778.490234 1928.365234 C 778.490234 1928.853516 778.802734 1929.15625 779.310547 1929.15625 Z M 782.005859 1923.482422 L 784.378906 1916.910156 L 784.427734 1916.910156 L 786.800781 1923.482422 Z"/>
        </g>
        <path id="path7" fill="none" stroke="#00aeef" stroke-width="0.5" d="M 792.835999 1915 L 792.835999 1929"/>
        <text id="Margins" xml:space="preserve" x="775" y="1951" font-family="Helvetica" font-size="13" font-weight="700" fill="#000000">Margins</text>
        <text id="Leading-and-trailing-margins" xml:space="preserve" x="775" y="1969" font-family="Helvetica" font-size="13" fill="#000000">Leading and trailing margins on the left and right side of each symbol</text>
        <text id="can-be-adjusted-by" xml:space="preserve" x="775" y="1987" font-family="Helvetica" font-size="13" fill="#000000">can be adjusted by modifying the x-location of the margin guidelines.</text>
        <text id="Modifications-are-automatically-applied" xml:space="preserve" x="775" y="2005" font-family="Helvetica" font-size="13" fill="#000000">Modifications are automatically applied proportionally to all</text>
        <text id="scales-and-weights" xml:space="preserve" x="775" y="2023" font-family="Helvetica" font-size="13" fill="#000000">scales and weights.</text>
        <g id="g4">
            <path id="path8" fill="#000000" stroke="none" d="M 1291.841797 1930.865234 L 1293.541016 1932.574219 C 1294.400391 1933.443359 1295.386719 1933.384766 1296.314453 1932.359375 L 1307.007813 1920.572266 L 1306.041016 1919.595703 L 1295.425781 1931.275391 C 1295.074219 1931.675781 1294.742188 1931.773438 1294.273438 1931.304688 L 1293.101563 1930.142578 C 1292.632813 1929.683594 1292.740234 1929.341797 1293.140625 1928.980469 L 1304.615234 1918.179688 L 1303.638672 1917.212891 L 1292.046875 1928.101563 C 1291.060547 1929.019531 1290.982422 1929.996094 1291.841797 1930.865234 Z M 1298.257813 1912.671875 C 1297.837891 1913.082031 1297.808594 1913.658203 1298.042969 1914.048828 C 1298.277344 1914.410156 1298.736328 1914.644531 1299.380859 1914.478516 C 1300.845703 1914.136719 1302.369141 1914.078125 1303.794922 1915.015625 L 1303.208984 1916.470703 C 1302.867188 1917.300781 1303.042969 1917.886719 1303.580078 1918.433594 L 1305.875 1920.748047 C 1306.363281 1921.236328 1306.773438 1921.255859 1307.339844 1921.158203 L 1308.404297 1920.962891 L 1309.068359 1921.636719 L 1309.029297 1922.193359 C 1308.990234 1922.691406 1309.117188 1923.072266 1309.605469 1923.550781 L 1310.367188 1924.292969 C 1310.845703 1924.771484 1311.460938 1924.800781 1311.929688 1924.332031 L 1314.839844 1921.412109 C 1315.308594 1920.943359 1315.289063 1920.347656 1314.810547 1919.869141 L 1314.039063 1919.107422 C 1313.560547 1918.628906 1313.189453 1918.472656 1312.710938 1918.511719 L 1312.134766 1918.560547 L 1311.490234 1917.925781 L 1311.734375 1916.802734 C 1311.861328 1916.236328 1311.705078 1915.796875 1311.119141 1915.210938 L 1308.921875 1913.023438 C 1305.582031 1909.703125 1301.148438 1909.78125 1298.257813 1912.671875 Z M 1299.751953 1913.042969 C 1302.183594 1911.265625 1305.474609 1911.568359 1307.701172 1913.794922 L 1310.132813 1916.207031 C 1310.367188 1916.441406 1310.40625 1916.626953 1310.337891 1916.96875 L 1310.015625 1918.453125 L 1311.519531 1919.9375 L 1312.505859 1919.878906 C 1312.759766 1919.869141 1312.837891 1919.888672 1313.033203 1920.083984 L 1313.609375 1920.660156 L 1311.167969 1923.101563 L 1310.591797 1922.525391 C 1310.396484 1922.330078 1310.367188 1922.251953 1310.376953 1921.988281 L 1310.445313 1921.011719 L 1308.951172 1919.527344 L 1307.427734 1919.78125 C 1307.105469 1919.849609 1306.958984 1919.820313 1306.714844 1919.585938 L 1304.712891 1917.583984 C 1304.458984 1917.349609 1304.429688 1917.183594 1304.585938 1916.8125 L 1305.464844 1914.722656 C 1303.902344 1913.267578 1301.871094 1912.642578 1299.839844 1913.238281 C 1299.683594 1913.277344 1299.625 1913.150391 1299.751953 1913.042969 Z"/>
        </g>
        <text id="Exporting" xml:space="preserve" x="1288" y="1951" font-family="Helvetica" font-size="13" font-weight="700" fill="#000000">Exporting</text>
        <text id="Symbols-should-be-outlined" xml:space="preserve" x="1288" y="1969" font-family="Helvetica" font-size="13" fill="#000000">Symbols should be outlined when exporting to ensure the</text>
        <text id="design-is-preserved-when" xml:space="preserve" x="1288" y="1987" font-family="Helvetica" font-size="13" fill="#000000">design is preserved when submitting to Xcode.</text>
        <text id="template-version" xml:space="preserve" x="2949.414063" y="1931" font-family="Helvetica" font-size="13" fill="#000000">Template v.6.0</text>
        <text id="Requires-Xcode-16-or" xml:space="preserve" x="2862.45752" y="1949" font-family="Helvetica" font-size="13" fill="#000000">Requires Xcode 16 or greater</text>
        <text id="Generated-from-dicebag" xml:space="preserve" x="2889.193848" y="1967" font-family="Helvetica" font-size="13" fill="#000000">Generated from dice.bag</text>
        <text id="Typeset-at-1000-points" xml:space="preserve" x="2898.569336" y="1985" font-family="Helvetica" font-size="13" fill="#000000">Typeset at 100.0 points</text>
        <text id="Small" xml:space="preserve" x="262" y="724" font-family="Helvetica" font-size="13" fill="#000000">Small</text>
        <text id="text1" xml:space="preserve" x="262" y="1154" font-family="Helvetica" font-size="13" fill="#000000">Medium</text>
        <text id="Large" xml:space="preserve" x="262" y="1584" font-family="Helvetica" font-size="13" fill="#000000">Large</text>
    </g>
    <g id="Guides">
        <g id="H-reference">
            <path id="path9" fill="#27aae1" stroke="none" d="M 339.993652 696 L 342.637756 696 L 368.328094 628.867676 L 369.030304 628.867676 L 369.030304 625.541016 L 367.122589 625.541016 Z M 350.688507 671.520142 L 385.981506 671.520142 L 385.231506 669.271484 L 351.438507 669.271484 Z M 394.119598 696 L 396.763702 696 L 369.638214 625.541016 L 368.432587 625.541016 L 368.432587 628.867676 Z"/>
        </g>
        <path id="Baseline-S" fill="none" stroke="#27aae1" stroke-width="0.5" d="M 263 696 L 3036 696"/>
        <path id="Capline-S" fill="none" stroke="#27aae1" stroke-width="0.5" d="M 263 625.541016 L 3036 625.541016"/>
        <g id="g5">
            <path id="path10" fill="#27aae1" stroke="none" d="M 339.993652 1126 L 342.637756 1126 L 368.328094 1058.867676 L 369.030304 1058.867676 L 369.030304 1055.541016 L 367.122589 1055.541016 Z M 350.688507 1101.520142 L 385.981506 1101.520142 L 385.231506 1099.271484 L 351.438507 1099.271484 Z M 394.119598 1126 L 396.763702 1126 L 369.638214 1055.541016 L 368.432587 1055.541016 L 368.432587 1058.867676 Z"/>
        </g>
        <path id="Baseline-M" fill="none" stroke="#27aae1" stroke-width="0.5" d="M 263 1126 L 3036 1126"/>
        <path id="Capline-M" fill="none" stroke="#27aae1" stroke-width="0.5" d="M 263 1055.540039 L 3036 1055.540039"/>
        <g id="g6">
            <path id="path11" fill="#27aae1" stroke="none" d="M 339.993652 1556 L 342.637756 1556 L 368.328094 1488.867676 L 369.030304 1488.867676 L 369.030304 1485.541016 L 367.122589 1485.541016 Z M 350.688507 1531.52002 L 385.981506 1531.52002 L 385.231506 1529.271484 L 351.438507 1529.271484 Z M 394.119598 1556 L 396.763702 1556 L 369.638214 1485.541016 L 368.432587 1485.541016 L 368.432587 1488.867676 Z"/>
        </g>
        <path id="Baseline-L" fill="none" stroke="#27aae1" stroke-width="0.5" d="M 263 1556 L 3036 1556"/>
        <path id="Capline-L" fill="none" stroke="#27aae1" stroke-width="0.5" d="M 263 1485.540039 L 3036 1485.540039"/>
        <path id="right-margin-Black-S" fill="none" stroke="#00aeef" stroke-width="0.5" d="M 2982.22998 600.784912 L 2982.22998 720.120972"/>
        <path id="left-margin-Black-S" fill="none" stroke="#00aeef" stroke-width="0.5" d="M 2884.570068 600.784912 L 2884.570068 720.120972"/>
        <path id="right-margin-Regular-S" fill="none" stroke="#00aeef" stroke-width="0.5" d="M 1496.109985 600.784912 L 1496.109985 720.120972"/>
        <path id="left-margin-Regular-S" fill="none" stroke="#00aeef" stroke-width="0.5" d="M 1403.579956 600.784912 L 1403.579956 720.120972"/>
        <path id="right-margin-Ultralight-S" fill="none" stroke="#00aeef" stroke-width="0.5" d="M 603.77301 600.784912 L 603.77301 720.120972"/>
        <path id="left-margin-Ultralight-S" fill="none" stroke="#00aeef" stroke-width="0.5" d="M 515.648987 600.784912 L 515.648987 720.120972"/>
    </g>
    <g id="Symbols">
        <g id="Black-S">
            <g id="Group-copy-12">
                <path id="Rounded-Rectangle" fill="#000000" fill-rule="evenodd" stroke="none" d="M 2977 620.866699 C 2977 619.283447 2975.716553 618 2974.133301 618 L 2941.166748 618 C 2939.583496 618 2938.300049 619.283447 2938.300049 620.866699 L 2938.300049 701.133301 C 2938.300049 702.716553 2939.583496 704 2941.166748 704 L 2974.133301 704 C 2975.716553 704 2977 702.716553 2977 701.133301 Z"/>
                <path id="Rounded-Rectangle-copy" fill="#000000" fill-rule="evenodd" stroke="none" d="M 2929.699951 620.866699 C 2929.699951 619.283447 2928.416504 618 2926.833252 618 L 2893.866699 618 C 2892.283447 618 2891 619.283447 2891 620.866699 L 2891 701.133301 C 2891 702.716553 2892.283447 704 2893.866699 704 L 2926.833252 704 C 2928.416504 704 2929.699951 702.716553 2929.699951 701.133301 Z"/>
            </g>
        </g>
        <g id="Regular-S">
            <g id="Group-copy-11">
                <path id="path12" fill="#000000" fill-rule="evenodd" stroke="none" d="M 1490 622.699951 C 1490 621.208862 1488.791138 620 1487.300049 620 L 1456.25 620 C 1454.758789 620 1453.550049 621.208862 1453.550049 622.699951 L 1453.550049 698.300049 C 1453.550049 699.791138 1454.758789 701 1456.25 701 L 1487.300049 701 C 1488.791138 701 1490 699.791138 1490 698.300049 Z"/>
                <path id="path13" fill="#000000" fill-rule="evenodd" stroke="none" d="M 1445.449951 622.699951 C 1445.449951 621.208862 1444.241211 620 1442.75 620 L 1411.699951 620 C 1410.208862 620 1409 621.208862 1409 622.699951 L 1409 698.300049 C 1409 699.791138 1410.208862 701 1411.699951 701 L 1442.75 701 C 1444.241211 701 1445.449951 699.791138 1445.449951 698.300049 Z"/>
            </g>
        </g>
        <g id="Ultralight-S">
            <g id="Group-copy-10">
                <path id="path14" fill="#000000" fill-rule="evenodd" stroke="none" d="M 597 626.400024 C 597 625.074463 595.925476 624 594.599976 624 L 567 624 C 565.6745 624 564.599976 625.074463 564.599976 626.400024 L 564.599976 693.599976 C 564.599976 694.925537 565.6745 696 567 696 L 594.599976 696 C 595.925476 696 597 694.925537 597 693.599976 Z"/>
                <path id="path15" fill="#000000" fill-rule="evenodd" stroke="none" d="M 557.400024 626.400024 C 557.400024 625.074463 556.3255 624 555 624 L 527.400024 624 C 526.074524 624 525 625.074463 525 626.400024 L 525 693.599976 C 525 694.925537 526.074524 696 527.400024 696 L 555 696 C 556.3255 696 557.400024 694.925537 557.400024 693.599976 Z"/>
            </g>
        </g>
    </g>
</svg>
